<mxfile host="65bd71144e">
    <diagram id="GdewEGm6CWDdLfYEHH-7" name="Page-1">
        <mxGraphModel dx="2154" dy="884" grid="1" gridSize="10" guides="1" tooltips="1" connect="1" arrows="1" fold="1" page="1" pageScale="1" pageWidth="850" pageHeight="1100" math="0" shadow="0">
            <root>
                <mxCell id="0"/>
                <mxCell id="1" parent="0"/>
                <mxCell id="4" value="" style="edgeStyle=none;html=1;fontSize=18;" edge="1" parent="1" source="2" target="3">
                    <mxGeometry relative="1" as="geometry"/>
                </mxCell>
                <mxCell id="2" value="&lt;font style=&quot;font-size: 18px;&quot;&gt;&lt;b&gt;Start&lt;/b&gt;&lt;/font&gt;" style="ellipse;whiteSpace=wrap;html=1;" vertex="1" parent="1">
                    <mxGeometry x="-335" width="120" height="80" as="geometry"/>
                </mxCell>
                <mxCell id="7" value="" style="edgeStyle=none;html=1;fontSize=18;fontColor=#523540;" edge="1" parent="1" source="3">
                    <mxGeometry relative="1" as="geometry">
                        <mxPoint x="-275.83333333333326" y="240" as="targetPoint"/>
                    </mxGeometry>
                </mxCell>
                <mxCell id="14" value="" style="edgeStyle=none;html=1;fontSize=18;fontColor=#523540;" edge="1" parent="1" source="3" target="13">
                    <mxGeometry relative="1" as="geometry"/>
                </mxCell>
                <mxCell id="3" value="&lt;p style=&quot;line-height: 0.5cm; margin-bottom: 0cm; background: transparent; color: rgb(0, 0, 0); font-size: medium;&quot;&gt;&lt;font color=&quot;#abb2bf&quot;&gt;&lt;font face=&quot;Droid Sans Mono, monospace, monospace&quot;&gt;&lt;font style=&quot;font-size: 10pt;&quot;&gt;&lt;span style=&quot;background: rgb(40, 44, 52);&quot;&gt;&lt;font color=&quot;#c678dd&quot;&gt;string&lt;/font&gt;[] &lt;font color=&quot;#e06c75&quot;&gt;inputArray&lt;/font&gt;&lt;/span&gt;&lt;/font&gt;&lt;/font&gt;&lt;/font&gt;&lt;/p&gt;&lt;p style=&quot;line-height: 0.5cm; margin-bottom: 0cm; background: transparent; color: rgb(0, 0, 0); font-size: medium;&quot;&gt;&lt;font color=&quot;#abb2bf&quot;&gt;&lt;font face=&quot;Droid Sans Mono, monospace, monospace&quot;&gt;&lt;font style=&quot;font-size: 10pt;&quot;&gt;&lt;span style=&quot;background: rgb(40, 44, 52);&quot;&gt;&lt;font color=&quot;#e06c75&quot;&gt;int count&lt;/font&gt; = &lt;font color=&quot;#61afef&quot;&gt;ArrayCheck&lt;/font&gt;(&lt;font color=&quot;#e06c75&quot;&gt;inputArray&lt;/font&gt;)&lt;/span&gt;&lt;/font&gt;&lt;/font&gt;&lt;/font&gt;&lt;/p&gt;&lt;p style=&quot;line-height: 0.5cm; margin-bottom: 0cm; background: transparent; color: rgb(0, 0, 0); font-size: medium;&quot;&gt;&lt;font style=&quot;font-family: &amp;quot;Droid Sans Mono&amp;quot;, monospace, monospace; font-size: 13.3333px; text-align: start;&quot; color=&quot;#c678dd&quot;&gt;int&lt;/font&gt;&lt;span style=&quot;color: rgb(171, 178, 191); font-family: &amp;quot;Droid Sans Mono&amp;quot;, monospace, monospace; font-size: 13.3333px; text-align: start; background-color: rgb(40, 44, 52);&quot;&gt;&amp;nbsp;&lt;/span&gt;&lt;font style=&quot;font-family: &amp;quot;Droid Sans Mono&amp;quot;, monospace, monospace; font-size: 13.3333px; text-align: start;&quot; color=&quot;#61afef&quot;&gt;ArrayCheck&lt;/font&gt;&lt;span style=&quot;color: rgb(171, 178, 191); font-family: &amp;quot;Droid Sans Mono&amp;quot;, monospace, monospace; font-size: 13.3333px; text-align: start; background-color: rgb(40, 44, 52);&quot;&gt;(&lt;/span&gt;&lt;font style=&quot;font-family: &amp;quot;Droid Sans Mono&amp;quot;, monospace, monospace; font-size: 13.3333px; text-align: start;&quot; color=&quot;#c678dd&quot;&gt;string&lt;/font&gt;&lt;span style=&quot;color: rgb(171, 178, 191); font-family: &amp;quot;Droid Sans Mono&amp;quot;, monospace, monospace; font-size: 13.3333px; text-align: start; background-color: rgb(40, 44, 52);&quot;&gt;[]&amp;nbsp;&lt;/span&gt;&lt;font style=&quot;font-family: &amp;quot;Droid Sans Mono&amp;quot;, monospace, monospace; font-size: 13.3333px; text-align: start;&quot; color=&quot;#e06c75&quot;&gt;&lt;i&gt;inputArray&lt;/i&gt;&lt;/font&gt;&lt;span style=&quot;color: rgb(171, 178, 191); font-family: &amp;quot;Droid Sans Mono&amp;quot;, monospace, monospace; font-size: 13.3333px; text-align: start; background-color: rgb(40, 44, 52);&quot;&gt;)&lt;br&gt;&lt;/span&gt;&lt;font style=&quot;font-family: &amp;quot;Droid Sans Mono&amp;quot;, monospace, monospace; font-size: 13.3333px; text-align: start;&quot; color=&quot;#c678dd&quot;&gt;string&lt;/font&gt;&lt;span style=&quot;color: rgb(171, 178, 191); font-family: &amp;quot;Droid Sans Mono&amp;quot;, monospace, monospace; font-size: 13.3333px; text-align: start; background-color: rgb(40, 44, 52);&quot;&gt;[]&amp;nbsp;&lt;/span&gt;&lt;font style=&quot;font-family: &amp;quot;Droid Sans Mono&amp;quot;, monospace, monospace; font-size: 13.3333px; text-align: start;&quot; color=&quot;#e06c75&quot;&gt;resultArray&lt;/font&gt;&lt;span style=&quot;color: rgb(171, 178, 191); font-family: &amp;quot;Droid Sans Mono&amp;quot;, monospace, monospace; font-size: 13.3333px; text-align: start; background-color: rgb(40, 44, 52);&quot;&gt;&amp;nbsp;=&amp;nbsp;&lt;/span&gt;&lt;font style=&quot;font-family: &amp;quot;Droid Sans Mono&amp;quot;, monospace, monospace; font-size: 13.3333px; text-align: start;&quot; color=&quot;#c678dd&quot;&gt;new&lt;/font&gt;&lt;span style=&quot;color: rgb(171, 178, 191); font-family: &amp;quot;Droid Sans Mono&amp;quot;, monospace, monospace; font-size: 13.3333px; text-align: start; background-color: rgb(40, 44, 52);&quot;&gt;&amp;nbsp;&lt;/span&gt;&lt;font style=&quot;font-family: &amp;quot;Droid Sans Mono&amp;quot;, monospace, monospace; font-size: 13.3333px; text-align: start;&quot; color=&quot;#c678dd&quot;&gt;string&lt;/font&gt;&lt;span style=&quot;color: rgb(171, 178, 191); font-family: &amp;quot;Droid Sans Mono&amp;quot;, monospace, monospace; font-size: 13.3333px; text-align: start; background-color: rgb(40, 44, 52);&quot;&gt;[&lt;/span&gt;&lt;font style=&quot;font-family: &amp;quot;Droid Sans Mono&amp;quot;, monospace, monospace; font-size: 13.3333px; text-align: start;&quot; color=&quot;#e06c75&quot;&gt;count&lt;/font&gt;&lt;span style=&quot;color: rgb(171, 178, 191); font-family: &amp;quot;Droid Sans Mono&amp;quot;, monospace, monospace; font-size: 13.3333px; text-align: start; background-color: rgb(40, 44, 52);&quot;&gt;]&lt;/span&gt;&lt;/p&gt;&lt;font style=&quot;font-family: &amp;quot;Droid Sans Mono&amp;quot;, monospace, monospace; font-size: 13.3333px; text-align: start;&quot; color=&quot;#c678dd&quot;&gt;&lt;br&gt;&lt;/font&gt;" style="rounded=0;whiteSpace=wrap;html=1;fontSize=18;align=center;" vertex="1" parent="1">
                    <mxGeometry x="-440" y="120" width="325" height="150" as="geometry"/>
                </mxCell>
                <mxCell id="28" value="" style="edgeStyle=none;html=1;fontSize=18;fontColor=#523540;fillColor=#FF0000;" edge="1" parent="1" source="10" target="26">
                    <mxGeometry relative="1" as="geometry"/>
                </mxCell>
                <mxCell id="29" value="&lt;b&gt;true&lt;/b&gt;" style="edgeLabel;html=1;align=center;verticalAlign=middle;resizable=0;points=[];fontSize=18;fontColor=#523540;" vertex="1" connectable="0" parent="28">
                    <mxGeometry x="-0.3291" y="-1" relative="1" as="geometry">
                        <mxPoint as="offset"/>
                    </mxGeometry>
                </mxCell>
                <mxCell id="31" value="" style="edgeStyle=none;html=1;fontSize=18;fontColor=#523540;fillColor=#FF0000;" edge="1" parent="1" source="10" target="27">
                    <mxGeometry relative="1" as="geometry"/>
                </mxCell>
                <mxCell id="32" value="&lt;b&gt;false&lt;/b&gt;" style="edgeLabel;html=1;align=center;verticalAlign=middle;resizable=0;points=[];fontSize=18;fontColor=#523540;" vertex="1" connectable="0" parent="31">
                    <mxGeometry x="-0.4652" y="-1" relative="1" as="geometry">
                        <mxPoint as="offset"/>
                    </mxGeometry>
                </mxCell>
                <mxCell id="10" value="&lt;p style=&quot;line-height: 0.5cm; margin-bottom: 0cm; background: transparent; color: rgb(0, 0, 0); font-size: medium;&quot;&gt;&lt;font color=&quot;#abb2bf&quot;&gt;&lt;font face=&quot;Droid Sans Mono, monospace, monospace&quot;&gt;&lt;font style=&quot;font-size: 10pt;&quot;&gt;&lt;span style=&quot;background: rgb(40, 44, 52);&quot;&gt;&lt;font color=&quot;#c678dd&quot;&gt;&lt;br&gt;&lt;/font&gt;&lt;/span&gt;&lt;/font&gt;&lt;/font&gt;&lt;/font&gt;&lt;/p&gt;&lt;p style=&quot;line-height: 0.5cm; margin-bottom: 0cm; background: transparent; color: rgb(0, 0, 0); font-size: medium;&quot;&gt;&lt;font color=&quot;#abb2bf&quot;&gt;&lt;font face=&quot;Droid Sans Mono, monospace, monospace&quot;&gt;&lt;font style=&quot;font-size: 10pt;&quot;&gt;&lt;span style=&quot;background: rgb(40, 44, 52);&quot;&gt;&lt;font color=&quot;#c678dd&quot;&gt;if&lt;/font&gt; (&lt;font color=&quot;#e06c75&quot;&gt;&lt;i&gt;inputArray&lt;/i&gt;&lt;/font&gt;[&lt;font color=&quot;#e06c75&quot;&gt;i&lt;/font&gt;].&lt;font color=&quot;#e06c75&quot;&gt;Length&lt;/font&gt; &amp;lt;= &lt;font color=&quot;#d19a66&quot;&gt;3&lt;/font&gt;)&lt;/span&gt;&lt;/font&gt;&lt;/font&gt;&lt;/font&gt;&lt;/p&gt;&lt;p style=&quot;line-height: 0.5cm; margin-bottom: 0cm; background: transparent; color: rgb(0, 0, 0); font-size: medium;&quot;&gt;&lt;br&gt;&lt;/p&gt;" style="rhombus;whiteSpace=wrap;html=1;fontSize=18;fontColor=#523540;align=center;" vertex="1" parent="1">
                    <mxGeometry x="-805" y="300" width="320" height="100" as="geometry"/>
                </mxCell>
                <mxCell id="15" value="" style="edgeStyle=none;html=1;fontSize=18;fontColor=#523540;" edge="1" parent="1" source="13" target="10">
                    <mxGeometry relative="1" as="geometry"/>
                </mxCell>
                <mxCell id="40" value="" style="edgeStyle=none;html=1;fontSize=18;fontColor=#523540;fillColor=#FF0000;" edge="1" parent="1" source="13" target="19">
                    <mxGeometry relative="1" as="geometry"/>
                </mxCell>
                <mxCell id="13" value="&lt;font style=&quot;font-size: 10pt; font-family: &amp;quot;Droid Sans Mono&amp;quot;, monospace, monospace; text-align: start;&quot; color=&quot;#c678dd&quot;&gt;int&lt;/font&gt;&lt;span style=&quot;background-color: rgb(40, 44, 52); font-size: 10pt; font-family: &amp;quot;Droid Sans Mono&amp;quot;, monospace, monospace; color: rgb(171, 178, 191); text-align: start;&quot;&gt; &lt;/span&gt;&lt;font style=&quot;font-size: 10pt; font-family: &amp;quot;Droid Sans Mono&amp;quot;, monospace, monospace; text-align: start;&quot; color=&quot;#e06c75&quot;&gt;count&lt;/font&gt;&lt;span style=&quot;background-color: rgb(40, 44, 52); font-size: 10pt; font-family: &amp;quot;Droid Sans Mono&amp;quot;, monospace, monospace; color: rgb(171, 178, 191); text-align: start;&quot;&gt; = &lt;/span&gt;&lt;font style=&quot;font-size: 10pt; font-family: &amp;quot;Droid Sans Mono&amp;quot;, monospace, monospace; text-align: start;&quot; color=&quot;#d19a66&quot;&gt;0&lt;/font&gt;&lt;span style=&quot;background-color: rgb(40, 44, 52); font-size: 10pt; font-family: &amp;quot;Droid Sans Mono&amp;quot;, monospace, monospace; color: rgb(171, 178, 191); text-align: start;&quot;&gt;;&lt;br&gt;&lt;/span&gt;for&amp;nbsp;&lt;font style=&quot;font-size: 10pt; font-family: &amp;quot;Droid Sans Mono&amp;quot;, monospace, monospace; text-align: start;&quot; color=&quot;#c678dd&quot;&gt;int&lt;/font&gt;&lt;span style=&quot;background-color: rgb(40, 44, 52); font-size: 10pt; font-family: &amp;quot;Droid Sans Mono&amp;quot;, monospace, monospace; color: rgb(171, 178, 191); text-align: start;&quot;&gt; &lt;/span&gt;&lt;font style=&quot;font-size: 10pt; font-family: &amp;quot;Droid Sans Mono&amp;quot;, monospace, monospace; text-align: start;&quot; color=&quot;#e06c75&quot;&gt;i&lt;/font&gt;&lt;span style=&quot;background-color: rgb(40, 44, 52); font-size: 10pt; font-family: &amp;quot;Droid Sans Mono&amp;quot;, monospace, monospace; color: rgb(171, 178, 191); text-align: start;&quot;&gt; = &lt;/span&gt;&lt;font style=&quot;font-size: 10pt; font-family: &amp;quot;Droid Sans Mono&amp;quot;, monospace, monospace; text-align: start;&quot; color=&quot;#d19a66&quot;&gt;0&lt;/font&gt;&lt;span style=&quot;background-color: rgb(40, 44, 52); font-size: 10pt; font-family: &amp;quot;Droid Sans Mono&amp;quot;, monospace, monospace; color: rgb(171, 178, 191); text-align: start;&quot;&gt;; &lt;/span&gt;&lt;font style=&quot;font-size: 10pt; font-family: &amp;quot;Droid Sans Mono&amp;quot;, monospace, monospace; text-align: start;&quot; color=&quot;#e06c75&quot;&gt;i&lt;/font&gt;&lt;span style=&quot;background-color: rgb(40, 44, 52); font-size: 10pt; font-family: &amp;quot;Droid Sans Mono&amp;quot;, monospace, monospace; color: rgb(171, 178, 191); text-align: start;&quot;&gt; &amp;lt; &lt;/span&gt;&lt;font style=&quot;font-size: 10pt; font-family: &amp;quot;Droid Sans Mono&amp;quot;, monospace, monospace; text-align: start;&quot; color=&quot;#e06c75&quot;&gt;&lt;i&gt;inputArray&lt;/i&gt;&lt;/font&gt;&lt;span style=&quot;background-color: rgb(40, 44, 52); font-size: 10pt; font-family: &amp;quot;Droid Sans Mono&amp;quot;, monospace, monospace; color: rgb(171, 178, 191); text-align: start;&quot;&gt;.&lt;/span&gt;&lt;font style=&quot;font-size: 10pt; font-family: &amp;quot;Droid Sans Mono&amp;quot;, monospace, monospace; text-align: start;&quot; color=&quot;#e06c75&quot;&gt;Length&lt;/font&gt;&lt;span style=&quot;background-color: rgb(40, 44, 52); font-size: 10pt; font-family: &amp;quot;Droid Sans Mono&amp;quot;, monospace, monospace; color: rgb(171, 178, 191); text-align: start;&quot;&gt;;&lt;br&gt;&lt;/span&gt;&lt;span style=&quot;background-color: rgb(40, 44, 52); font-size: 10pt; font-family: &amp;quot;Droid Sans Mono&amp;quot;, monospace, monospace; color: rgb(171, 178, 191); text-align: start;&quot;&gt;retutn count;&lt;br&gt;&lt;/span&gt;" style="shape=hexagon;perimeter=hexagonPerimeter2;whiteSpace=wrap;html=1;fixedSize=1;fontSize=18;fontColor=#523540;" vertex="1" parent="1">
                    <mxGeometry x="-452.5" y="310" width="350" height="80" as="geometry"/>
                </mxCell>
                <mxCell id="24" value="" style="edgeStyle=none;html=1;fontSize=18;fontColor=#523540;fillColor=#FF0000;" edge="1" parent="1" source="19" target="23">
                    <mxGeometry relative="1" as="geometry"/>
                </mxCell>
                <mxCell id="19" value="&lt;p style=&quot;line-height: 0.5cm; margin-bottom: 0cm; background: transparent; color: rgb(0, 0, 0); font-size: medium; text-align: start;&quot;&gt;&lt;font color=&quot;#abb2bf&quot;&gt;&lt;font face=&quot;Droid Sans Mono, monospace, monospace&quot;&gt;&lt;font style=&quot;font-size: 10pt;&quot;&gt;&lt;span style=&quot;background: rgb(40, 44, 52);&quot;&gt;&lt;font color=&quot;#c678dd&quot;&gt;void&lt;/font&gt; &lt;font color=&quot;#61afef&quot;&gt;FillResultArray&lt;/font&gt;(&lt;font color=&quot;#c678dd&quot;&gt;string&lt;/font&gt;[] &lt;font color=&quot;#e06c75&quot;&gt;&lt;i&gt;inputArray&lt;/i&gt;&lt;/font&gt;, &lt;font color=&quot;#c678dd&quot;&gt;string&lt;/font&gt;[] &lt;font color=&quot;#e06c75&quot;&gt;&lt;i&gt;resultArray&lt;/i&gt;&lt;/font&gt;)&lt;/span&gt;&lt;/font&gt;&lt;/font&gt;&lt;/font&gt;&lt;/p&gt;" style="rounded=0;whiteSpace=wrap;html=1;fontSize=18;fontColor=#523540;" vertex="1" parent="1">
                    <mxGeometry x="-532.5" y="450" width="510" height="60" as="geometry"/>
                </mxCell>
                <mxCell id="43" value="" style="edgeStyle=none;html=1;fontSize=18;fontColor=#523540;fillColor=#FF0000;entryX=0.404;entryY=1.006;entryDx=0;entryDy=0;entryPerimeter=0;" edge="1" parent="1" source="22" target="42">
                    <mxGeometry relative="1" as="geometry">
                        <mxPoint x="-655" y="690" as="targetPoint"/>
                    </mxGeometry>
                </mxCell>
                <mxCell id="44" value="&lt;b&gt;true&lt;/b&gt;" style="edgeLabel;html=1;align=center;verticalAlign=middle;resizable=0;points=[];fontSize=18;fontColor=#523540;" vertex="1" connectable="0" parent="43">
                    <mxGeometry x="-0.555" y="-1" relative="1" as="geometry">
                        <mxPoint x="-1" y="-9" as="offset"/>
                    </mxGeometry>
                </mxCell>
                <mxCell id="46" value="" style="edgeStyle=none;html=1;fontSize=18;fontColor=#523540;fillColor=#FF0000;" edge="1" parent="1" source="22" target="45">
                    <mxGeometry relative="1" as="geometry"/>
                </mxCell>
                <mxCell id="47" value="&lt;b&gt;false&lt;/b&gt;" style="edgeLabel;html=1;align=center;verticalAlign=middle;resizable=0;points=[];fontSize=18;fontColor=#523540;" vertex="1" connectable="0" parent="46">
                    <mxGeometry x="-0.4933" relative="1" as="geometry">
                        <mxPoint y="10" as="offset"/>
                    </mxGeometry>
                </mxCell>
                <mxCell id="22" value="&lt;p style=&quot;line-height: 0.5cm; margin-bottom: 0cm; background: transparent; color: rgb(0, 0, 0); font-size: medium;&quot;&gt;&lt;font color=&quot;#abb2bf&quot;&gt;&lt;font face=&quot;Droid Sans Mono, monospace, monospace&quot;&gt;&lt;font style=&quot;font-size: 10pt;&quot;&gt;&lt;span style=&quot;background: rgb(40, 44, 52);&quot;&gt;&lt;font color=&quot;#c678dd&quot;&gt;if&lt;/font&gt; (&lt;font color=&quot;#e06c75&quot;&gt;&lt;i&gt;inputArray&lt;/i&gt;&lt;/font&gt;[&lt;font color=&quot;#e06c75&quot;&gt;i&lt;/font&gt;].&lt;font color=&quot;#e06c75&quot;&gt;Length&lt;/font&gt; &amp;lt;= &lt;font color=&quot;#d19a66&quot;&gt;3&lt;/font&gt; &amp;amp;&amp;amp; &lt;font color=&quot;#e06c75&quot;&gt;count&lt;/font&gt; &amp;gt; &lt;font color=&quot;#d19a66&quot;&gt;0&lt;/font&gt;)&lt;/span&gt;&lt;/font&gt;&lt;/font&gt;&lt;/font&gt;&lt;/p&gt;" style="rhombus;whiteSpace=wrap;html=1;fontSize=18;fontColor=#523540;align=center;" vertex="1" parent="1">
                    <mxGeometry x="-840" y="710" width="370" height="140" as="geometry"/>
                </mxCell>
                <mxCell id="41" value="" style="edgeStyle=none;html=1;fontSize=18;fontColor=#523540;fillColor=#FF0000;" edge="1" parent="1" source="23" target="22">
                    <mxGeometry relative="1" as="geometry"/>
                </mxCell>
                <mxCell id="55" value="" style="edgeStyle=none;html=1;fontSize=18;fontColor=#523540;fillColor=#FF0000;entryX=0.271;entryY=0;entryDx=0;entryDy=0;entryPerimeter=0;" edge="1" parent="1" source="23" target="53">
                    <mxGeometry relative="1" as="geometry"/>
                </mxCell>
                <mxCell id="23" value="&lt;p style=&quot;line-height: 0.5cm; margin-bottom: 0cm; background: transparent; color: rgb(0, 0, 0); font-size: medium; text-align: start;&quot;&gt;&lt;font color=&quot;#abb2bf&quot;&gt;&lt;font face=&quot;Droid Sans Mono, monospace, monospace&quot;&gt;&lt;font style=&quot;font-size: 10pt;&quot;&gt;&lt;span style=&quot;background: rgb(40, 44, 52);&quot;&gt;&lt;font color=&quot;#c678dd&quot;&gt;int&lt;/font&gt; &lt;font color=&quot;#e06c75&quot;&gt;count&lt;/font&gt; = &lt;font color=&quot;#e06c75&quot;&gt;&lt;i&gt;resultArray&lt;/i&gt;&lt;/font&gt;.&lt;font color=&quot;#e06c75&quot;&gt;Length&lt;/font&gt;;&lt;/span&gt;&lt;/font&gt;&lt;/font&gt;&lt;/font&gt;&lt;/p&gt;&lt;p style=&quot;line-height: 0.5cm; margin-bottom: 0cm; background: transparent; color: rgb(0, 0, 0); font-size: medium; text-align: start;&quot;&gt;&lt;font color=&quot;#abb2bf&quot;&gt;&lt;font face=&quot;Droid Sans Mono, monospace, monospace&quot;&gt;&lt;font style=&quot;font-size: 10pt;&quot;&gt;&lt;span style=&quot;background: rgb(40, 44, 52);&quot;&gt;&lt;font color=&quot;#c678dd&quot;&gt;for&lt;/font&gt; (&lt;font color=&quot;#c678dd&quot;&gt;int&lt;/font&gt; &lt;font color=&quot;#e06c75&quot;&gt;i&lt;/font&gt; = &lt;font color=&quot;#d19a66&quot;&gt;0&lt;/font&gt;; &lt;font color=&quot;#e06c75&quot;&gt;i&lt;/font&gt; &amp;lt; &lt;font color=&quot;#e06c75&quot;&gt;&lt;i&gt;inputArray&lt;/i&gt;&lt;/font&gt;.&lt;font color=&quot;#e06c75&quot;&gt;Length&lt;/font&gt;;)&lt;/span&gt;&lt;/font&gt;&lt;/font&gt;&lt;/font&gt;&lt;/p&gt;" style="shape=hexagon;perimeter=hexagonPerimeter2;whiteSpace=wrap;html=1;fixedSize=1;fontSize=18;fontColor=#523540;" vertex="1" parent="1">
                    <mxGeometry x="-452.5" y="700" width="347.5" height="80" as="geometry"/>
                </mxCell>
                <mxCell id="26" value="&lt;p style=&quot;background: transparent; line-height: 0.5cm; margin-bottom: 0cm; color: rgb(0, 0, 0); font-size: medium;&quot;&gt;&lt;b&gt;&lt;font style=&quot;font-size: 10pt; font-family: &amp;quot;Droid Sans Mono&amp;quot;, monospace, monospace;&quot; color=&quot;#e06c75&quot;&gt;count&lt;/font&gt;&lt;span style=&quot;background-color: rgb(40, 44, 52); font-size: 10pt; font-family: &amp;quot;Droid Sans Mono&amp;quot;, monospace, monospace; color: rgb(171, 178, 191);&quot;&gt;++;&lt;/span&gt;&lt;br&gt;&lt;/b&gt;&lt;/p&gt;&lt;p style=&quot;background: transparent; line-height: 0.5cm; margin-bottom: 0cm; color: rgb(0, 0, 0); font-size: medium;&quot;&gt;&lt;span style=&quot;background-color: rgb(40, 44, 52); font-size: 10pt; font-family: &amp;quot;Droid Sans Mono&amp;quot;, monospace, monospace; color: rgb(171, 178, 191);&quot;&gt;&lt;b&gt;i++;&lt;/b&gt;&lt;/span&gt;&lt;/p&gt;" style="rounded=0;whiteSpace=wrap;html=1;fontSize=18;fontColor=#523540;" vertex="1" parent="1">
                    <mxGeometry x="-705" y="160" width="120" height="70" as="geometry"/>
                </mxCell>
                <mxCell id="34" value="" style="edgeStyle=none;html=1;fontSize=18;fontColor=#523540;fillColor=#FF0000;endArrow=none;" edge="1" parent="1" source="10" target="27">
                    <mxGeometry relative="1" as="geometry">
                        <mxPoint x="-547.8348778433024" y="420.43807919123833" as="sourcePoint"/>
                        <mxPoint x="-316.1999999999998" y="600" as="targetPoint"/>
                    </mxGeometry>
                </mxCell>
                <mxCell id="35" value="&lt;b&gt;false&lt;/b&gt;" style="edgeLabel;html=1;align=center;verticalAlign=middle;resizable=0;points=[];fontSize=18;fontColor=#523540;" vertex="1" connectable="0" parent="34">
                    <mxGeometry x="-0.5233" y="-2" relative="1" as="geometry">
                        <mxPoint as="offset"/>
                    </mxGeometry>
                </mxCell>
                <mxCell id="27" value="&lt;p style=&quot;background: transparent; line-height: 0.5cm; margin-bottom: 0cm; color: rgb(0, 0, 0); font-size: medium;&quot;&gt;&lt;span style=&quot;background-color: rgb(40, 44, 52); color: rgb(171, 178, 191); font-family: &amp;quot;Droid Sans Mono&amp;quot;, monospace, monospace; font-size: 10pt;&quot;&gt;&lt;b&gt;i++;&lt;/b&gt;&lt;/span&gt;&lt;br&gt;&lt;/p&gt;" style="rounded=0;whiteSpace=wrap;html=1;fontSize=18;fontColor=#523540;" vertex="1" parent="1">
                    <mxGeometry x="-705" y="470" width="120" height="60" as="geometry"/>
                </mxCell>
                <mxCell id="36" value="" style="endArrow=classic;html=1;fontSize=18;fontColor=#523540;fillColor=#FF0000;exitX=0.812;exitY=0.992;exitDx=0;exitDy=0;entryX=0.054;entryY=0.028;entryDx=0;entryDy=0;entryPerimeter=0;exitPerimeter=0;" edge="1" parent="1" source="26" target="13">
                    <mxGeometry width="50" height="50" relative="1" as="geometry">
                        <mxPoint x="-275" y="350" as="sourcePoint"/>
                        <mxPoint x="-505" y="240" as="targetPoint"/>
                        <Array as="points">
                            <mxPoint x="-605" y="280"/>
                            <mxPoint x="-435" y="290"/>
                        </Array>
                    </mxGeometry>
                </mxCell>
                <mxCell id="37" value="" style="endArrow=classic;html=1;fontSize=18;fontColor=#523540;fillColor=#FF0000;entryX=0.061;entryY=1.018;entryDx=0;entryDy=0;entryPerimeter=0;exitX=1;exitY=0;exitDx=0;exitDy=0;" edge="1" parent="1" source="27" target="13">
                    <mxGeometry width="50" height="50" relative="1" as="geometry">
                        <mxPoint x="-575" y="490" as="sourcePoint"/>
                        <mxPoint x="-485" y="500" as="targetPoint"/>
                        <Array as="points">
                            <mxPoint x="-585" y="420"/>
                            <mxPoint x="-431" y="420"/>
                        </Array>
                    </mxGeometry>
                </mxCell>
                <mxCell id="42" value="&lt;p style=&quot;line-height: 0.5cm; margin-bottom: 0cm; background: transparent; color: rgb(0, 0, 0); font-size: medium;&quot;&gt;&lt;font color=&quot;#abb2bf&quot;&gt;&lt;font face=&quot;Droid Sans Mono, monospace, monospace&quot;&gt;&lt;font style=&quot;font-size: 10pt;&quot;&gt;&lt;span style=&quot;background: rgb(40, 44, 52);&quot;&gt;&lt;font color=&quot;#e06c75&quot;&gt;&lt;i&gt;resultArray&lt;/i&gt;&lt;/font&gt;[&lt;font color=&quot;#e06c75&quot;&gt;&lt;i&gt;resultArray&lt;/i&gt;&lt;/font&gt;.&lt;font color=&quot;#e06c75&quot;&gt;Length&lt;/font&gt; - &lt;font color=&quot;#e06c75&quot;&gt;count&lt;/font&gt;] = &lt;font color=&quot;#e06c75&quot;&gt;&lt;i&gt;inputArray&lt;/i&gt;&lt;/font&gt;[&lt;font color=&quot;#e06c75&quot;&gt;i&lt;/font&gt;];&lt;/span&gt;&lt;/font&gt;&lt;/font&gt;&lt;/font&gt;&lt;/p&gt;&lt;p style=&quot;line-height: 0.5cm; margin-bottom: 0cm; background: transparent; color: rgb(0, 0, 0); font-size: medium;&quot;&gt;&lt;font color=&quot;#abb2bf&quot;&gt;&lt;font face=&quot;Droid Sans Mono, monospace, monospace&quot;&gt;&lt;font style=&quot;font-size: 10pt;&quot;&gt;&lt;span style=&quot;background: rgb(40, 44, 52);&quot;&gt;&lt;font color=&quot;#e06c75&quot;&gt;count&lt;/font&gt;--;&lt;/span&gt;&lt;/font&gt;&lt;/font&gt;&lt;/font&gt;&lt;/p&gt;&lt;p style=&quot;line-height: 0.5cm; margin-bottom: 0cm; background: transparent; color: rgb(0, 0, 0); font-size: medium;&quot;&gt;&lt;font color=&quot;#abb2bf&quot;&gt;&lt;font face=&quot;Droid Sans Mono, monospace, monospace&quot;&gt;&lt;font style=&quot;font-size: 10pt;&quot;&gt;&lt;span style=&quot;background: rgb(40, 44, 52);&quot;&gt;&lt;font color=&quot;#e06c75&quot;&gt;i&lt;/font&gt;++;&lt;/span&gt;&lt;/font&gt;&lt;/font&gt;&lt;/font&gt;&lt;/p&gt;" style="rounded=0;whiteSpace=wrap;html=1;fontSize=18;fontColor=#523540;align=center;" vertex="1" parent="1">
                    <mxGeometry x="-840" y="550" width="460" height="110" as="geometry"/>
                </mxCell>
                <mxCell id="45" value="&lt;p style=&quot;line-height: 0.5cm; margin-bottom: 0cm; background: transparent; color: rgb(0, 0, 0); font-size: medium;&quot;&gt;&lt;font color=&quot;#abb2bf&quot;&gt;&lt;font face=&quot;Droid Sans Mono, monospace, monospace&quot;&gt;&lt;font style=&quot;font-size: 10pt;&quot;&gt;&lt;span style=&quot;background: rgb(40, 44, 52);&quot;&gt;&lt;font color=&quot;#e06c75&quot;&gt;i&lt;/font&gt;++;&lt;/span&gt;&lt;/font&gt;&lt;/font&gt;&lt;/font&gt;&lt;/p&gt;" style="rounded=0;whiteSpace=wrap;html=1;fontSize=18;fontColor=#523540;align=center;" vertex="1" parent="1">
                    <mxGeometry x="-715" y="910" width="120" height="60" as="geometry"/>
                </mxCell>
                <mxCell id="48" value="" style="endArrow=classic;html=1;fontSize=18;fontColor=#523540;fillColor=#FF0000;exitX=0.949;exitY=1.017;exitDx=0;exitDy=0;exitPerimeter=0;entryX=0.137;entryY=0.018;entryDx=0;entryDy=0;entryPerimeter=0;" edge="1" parent="1" source="42" target="23">
                    <mxGeometry width="50" height="50" relative="1" as="geometry">
                        <mxPoint x="-685" y="780" as="sourcePoint"/>
                        <mxPoint x="-635" y="730" as="targetPoint"/>
                    </mxGeometry>
                </mxCell>
                <mxCell id="50" value="" style="endArrow=classic;html=1;fontSize=18;fontColor=#523540;fillColor=#FF0000;exitX=1;exitY=0.5;exitDx=0;exitDy=0;entryX=0.137;entryY=1;entryDx=0;entryDy=0;entryPerimeter=0;" edge="1" parent="1" source="45" target="23">
                    <mxGeometry width="50" height="50" relative="1" as="geometry">
                        <mxPoint x="-475" y="830" as="sourcePoint"/>
                        <mxPoint x="-435" y="1010" as="targetPoint"/>
                        <Array as="points">
                            <mxPoint x="-405" y="940"/>
                        </Array>
                    </mxGeometry>
                </mxCell>
                <mxCell id="58" value="" style="edgeStyle=none;html=1;fontSize=18;fontColor=#523540;fillColor=#FF0000;exitX=0.451;exitY=1.034;exitDx=0;exitDy=0;exitPerimeter=0;" edge="1" parent="1" source="53" target="57">
                    <mxGeometry relative="1" as="geometry"/>
                </mxCell>
                <mxCell id="53" value="&lt;p style=&quot;line-height: 0.5cm; margin-bottom: 0cm; background: transparent; color: rgb(0, 0, 0); font-size: medium; text-align: start;&quot;&gt;&lt;font color=&quot;#abb2bf&quot;&gt;&lt;font face=&quot;Droid Sans Mono, monospace, monospace&quot;&gt;&lt;font style=&quot;font-size: 10pt;&quot;&gt;&lt;span style=&quot;background: rgb(40, 44, 52);&quot;&gt;&lt;font color=&quot;#c678dd&quot;&gt;void&lt;/font&gt; &lt;font color=&quot;#61afef&quot;&gt;PrintArray&lt;/font&gt;(&lt;font color=&quot;#c678dd&quot;&gt;string&lt;/font&gt;[] &lt;font color=&quot;#e06c75&quot;&gt;&lt;i&gt;resultArray&lt;/i&gt;&lt;/font&gt;)&lt;/span&gt;&lt;/font&gt;&lt;/font&gt;&lt;/font&gt;&lt;/p&gt;" style="rounded=0;whiteSpace=wrap;html=1;fontSize=18;fontColor=#523540;" vertex="1" parent="1">
                    <mxGeometry x="-360" y="890" width="300" height="60" as="geometry"/>
                </mxCell>
                <mxCell id="60" value="" style="edgeStyle=none;html=1;fontSize=18;fontColor=#523540;fillColor=#FF0000;" edge="1" parent="1" source="57" target="59">
                    <mxGeometry relative="1" as="geometry"/>
                </mxCell>
                <mxCell id="57" value="&lt;p style=&quot;line-height: 0.5cm; margin-bottom: 0cm; background: transparent; color: rgb(0, 0, 0); font-size: medium; text-align: start;&quot;&gt;&lt;font color=&quot;#abb2bf&quot;&gt;&lt;font face=&quot;Droid Sans Mono, monospace, monospace&quot;&gt;&lt;font style=&quot;font-size: 10pt;&quot;&gt;&lt;span style=&quot;background: rgb(40, 44, 52);&quot;&gt;&lt;font color=&quot;#61afef&quot;&gt;FillResultArray&lt;/font&gt;(&lt;font color=&quot;#e06c75&quot;&gt;inputArray&lt;/font&gt;, &lt;font color=&quot;#e06c75&quot;&gt;resultArray&lt;/font&gt;);&lt;/span&gt;&lt;/font&gt;&lt;/font&gt;&lt;/font&gt;&lt;/p&gt;&lt;p style=&quot;line-height: 0.5cm; margin-bottom: 0cm; background: transparent; color: rgb(0, 0, 0); font-size: medium; text-align: start;&quot;&gt;&lt;font color=&quot;#abb2bf&quot;&gt;&lt;font face=&quot;Droid Sans Mono, monospace, monospace&quot;&gt;&lt;font style=&quot;font-size: 10pt;&quot;&gt;&lt;span style=&quot;background: rgb(40, 44, 52);&quot;&gt;&lt;font color=&quot;#61afef&quot;&gt;PrintArray&lt;/font&gt;(&lt;font color=&quot;#e06c75&quot;&gt;resultArray&lt;/font&gt;);&lt;/span&gt;&lt;/font&gt;&lt;/font&gt;&lt;/font&gt;&lt;/p&gt;" style="shape=document;whiteSpace=wrap;html=1;boundedLbl=1;fontSize=18;fontColor=#523540;" vertex="1" parent="1">
                    <mxGeometry x="-410" y="970" width="370" height="80" as="geometry"/>
                </mxCell>
                <mxCell id="59" value="&lt;b&gt;Finish&lt;/b&gt;" style="ellipse;whiteSpace=wrap;html=1;fontSize=18;fontColor=#523540;" vertex="1" parent="1">
                    <mxGeometry x="-572.5" y="970" width="120" height="80" as="geometry"/>
                </mxCell>
            </root>
        </mxGraphModel>
    </diagram>
</mxfile>